<?xml version="1.0" encoding="utf-8"?>
<svg version="1.1" xmlns:xlink="http://www.w3.org/1999/xlink" width="216px" height="216px" xmlns="http://www.w3.org/2000/svg">
  <g transform="matrix(1 0 0 1 -115 -219 )">
    <path d="M 223 219  C 283.48 219  331 266.52  331 327  C 331 387.48  283.48 435  223 435  C 162.52 435  115 387.48  115 327  C 115 266.52  162.52 219  223 219  Z " fill-rule="nonzero" fill="#cecece" stroke="none" />
    <path d="M 223 219.5  C 283.2 219.5  330.5 266.8  330.5 327  C 330.5 387.2  283.2 434.5  223 434.5  C 162.8 434.5  115.5 387.2  115.5 327  C 115.5 266.8  162.8 219.5  223 219.5  Z " stroke-width="1" stroke="#797979" fill="none" />
  </g>
</svg>