<?xml version="1.0" encoding="utf-8"?>
<svg version="1.1" xmlns:xlink="http://www.w3.org/1999/xlink" width="43px" height="25px" xmlns="http://www.w3.org/2000/svg">
  <g transform="matrix(1 0 0 1 -202 -500 )">
    <path d="M 42.5691382765531 20.446735395189  C 42.8563794255177 20.7331042382589  43 21.0624284077892  43 21.4347079037801  C 43 21.8069873997709  42.8563794255177 22.1363115693013  42.5691382765531 22.4226804123711  L 40.4148296593186 24.5704467353952  C 40.127588510354 24.8568155784651  39.7972611890448 25  39.4238476953908 25  C 39.0504342017368 25  38.7201068804275 24.8568155784651  38.4328657314629 24.5704467353952  L 21.5 7.68900343642612  L 4.56713426853707 24.5704467353952  C 4.27989311957248 24.8568155784651  3.94956579826319 25  3.57615230460922 25  C 3.20273881095524 25  2.87241148964596 24.8568155784651  2.58517034068136 24.5704467353952  L 0.430861723446894 22.4226804123711  C 0.143620574482298 22.1363115693013  0 21.8069873997709  0 21.4347079037801  C 0 21.0624284077892  0.143620574482298 20.7331042382589  0.430861723446894 20.446735395189  L 20.5090180360721 0.429553264604812  C 20.7962591850367 0.143184421534934  21.126586506346 0  21.5 0  C 21.873413493654 0  22.2037408149633 0.143184421534934  22.4909819639279 0.429553264604812  L 42.5691382765531 20.446735395189  Z " fill-rule="nonzero" fill="#000000" stroke="none" transform="matrix(1 0 0 1 202 500 )" />
  </g>
</svg>