<?xml version="1.0" encoding="utf-8"?>
<svg version="1.1" xmlns:xlink="http://www.w3.org/1999/xlink" width="57px" height="57px" xmlns="http://www.w3.org/2000/svg">
  <defs>
    <filter x="333px" y="677px" width="57px" height="57px" filterUnits="userSpaceOnUse" id="filter33">
      <feOffset dx="0" dy="0" in="SourceAlpha" result="shadowOffsetInner" />
      <feGaussianBlur stdDeviation="5" in="shadowOffsetInner" result="shadowGaussian" />
      <feComposite in2="shadowGaussian" operator="atop" in="SourceAlpha" result="shadowComposite" />
      <feColorMatrix type="matrix" values="0 0 0 0 0  0 0 0 0 0  0 0 0 0 0  0 0 0 0.313725490196078 0  " in="shadowComposite" />
    </filter>
    <g id="widget34">
      <path d="M 28.833984375 21.1256510416667  C 29.1391059027778 20.8205295138889  29.2916666666667 20.4592013888889  29.2916666666667 20.0416666666667  L 29.2916666666667 16.9583333333333  C 29.2916666666667 16.5407986111111  29.1391059027778 16.1794704861111  28.833984375 15.8743489583333  C 28.5288628472222 15.5692274305556  28.1675347222222 15.4166666666667  27.75 15.4166666666667  L 21.5833333333333 15.4166666666667  L 21.5833333333333 9.25  C 21.5833333333333 8.83246527777778  21.4307725694444 8.47113715277778  21.1256510416667 8.166015625  C 20.8205295138889 7.86089409722222  20.4592013888889 7.70833333333333  20.0416666666667 7.70833333333333  L 16.9583333333333 7.70833333333333  C 16.5407986111111 7.70833333333333  16.1794704861111 7.86089409722222  15.8743489583333 8.166015625  C 15.5692274305556 8.47113715277778  15.4166666666667 8.83246527777778  15.4166666666667 9.25  L 15.4166666666667 15.4166666666667  L 9.25 15.4166666666667  C 8.83246527777778 15.4166666666667  8.47113715277778 15.5692274305556  8.166015625 15.8743489583333  C 7.86089409722222 16.1794704861111  7.70833333333333 16.5407986111111  7.70833333333333 16.9583333333333  L 7.70833333333333 20.0416666666667  C 7.70833333333333 20.4592013888889  7.86089409722222 20.8205295138889  8.166015625 21.1256510416667  C 8.47113715277778 21.4307725694444  8.83246527777778 21.5833333333333  9.25 21.5833333333333  L 15.4166666666667 21.5833333333333  L 15.4166666666667 27.75  C 15.4166666666667 28.1675347222222  15.5692274305556 28.5288628472222  15.8743489583333 28.833984375  C 16.1794704861111 29.1391059027778  16.5407986111111 29.2916666666667  16.9583333333333 29.2916666666667  L 20.0416666666667 29.2916666666667  C 20.4592013888889 29.2916666666667  20.8205295138889 29.1391059027778  21.1256510416667 28.833984375  C 21.4307725694444 28.5288628472222  21.5833333333333 28.1675347222222  21.5833333333333 27.75  L 21.5833333333333 21.5833333333333  L 27.75 21.5833333333333  C 28.1675347222222 21.5833333333333  28.5288628472222 21.4307725694444  28.833984375 21.1256510416667  Z M 34.5188802083333 9.2138671875  C 36.1729600694444 12.0482855902778  37 15.1436631944444  37 18.5  C 37 21.8563368055556  36.1729600694444 24.9517144097222  34.5188802083333 27.7861328125  C 32.8648003472222 30.6205512152778  30.6205512152778 32.8648003472222  27.7861328125 34.5188802083333  C 24.9517144097222 36.1729600694445  21.8563368055556 37  18.5 37  C 15.1436631944444 37  12.0482855902778 36.1729600694445  9.2138671875 34.5188802083333  C 6.37944878472222 32.8648003472222  4.13519965277778 30.6205512152778  2.48111979166667 27.7861328125  C 0.827039930555555 24.9517144097222  0 21.8563368055556  0 18.5  C 0 15.1436631944444  0.827039930555555 12.0482855902778  2.48111979166667 9.2138671875  C 4.13519965277778 6.37944878472222  6.37944878472222 4.13519965277777  9.2138671875 2.48111979166667  C 12.0482855902778 0.827039930555552  15.1436631944444 0  18.5 0  C 21.8563368055556 0  24.9517144097222 0.827039930555552  27.7861328125 2.48111979166667  C 30.6205512152778 4.13519965277777  32.8648003472222 6.37944878472222  34.5188802083333 9.2138671875  Z " fill-rule="nonzero" fill="#333333" stroke="none" transform="matrix(1 0 0 1 343 687 )" />
    </g>
  </defs>
  <g transform="matrix(1 0 0 1 -333 -677 )">
    <use xlink:href="#widget34" filter="url(#filter33)" />
    <use xlink:href="#widget34" />
  </g>
</svg>