<?xml version="1.0" encoding="utf-8"?>
<svg version="1.1" xmlns:xlink="http://www.w3.org/1999/xlink" width="46px" height="29px" xmlns="http://www.w3.org/2000/svg">
  <g transform="matrix(1 0 0 1 -330 -327 )">
    <path d="M 24.96533203125 18.997265625  C 25.57177734375 17.569921875  25.875 16.0708333333333  25.875 14.5  C 25.875 12.9291666666667  25.57177734375 11.430078125  24.96533203125 10.002734375  C 24.35888671875 8.575390625  23.5390625 7.340625  22.505859375 6.2984375  C 21.47265625 5.25625  20.24853515625 4.429296875  18.83349609375 3.817578125  C 17.41845703125 3.205859375  15.9322916666667 2.9  14.375 2.9  C 12.8177083333333 2.9  11.33154296875 3.205859375  9.91650390625 3.817578125  C 8.50146484375 4.429296875  7.27734375 5.25625  6.244140625 6.2984375  C 5.2109375 7.340625  4.39111328125 8.575390625  3.78466796875 10.002734375  C 3.17822265625 11.430078125  2.875 12.9291666666667  2.875 14.5  C 2.875 16.0708333333333  3.17822265625 17.569921875  3.78466796875 18.997265625  C 4.39111328125 20.424609375  5.2109375 21.659375  6.244140625 22.7015625  C 7.27734375 23.74375  8.50146484375 24.570703125  9.91650390625 25.182421875  C 11.33154296875 25.794140625  12.8177083333333 26.1  14.375 26.1  C 15.9322916666667 26.1  17.41845703125 25.794140625  18.83349609375 25.182421875  C 20.24853515625 24.570703125  21.47265625 23.74375  22.505859375 22.7015625  C 23.5390625 21.659375  24.35888671875 20.424609375  24.96533203125 18.997265625  Z M 42.21533203125 18.997265625  C 42.82177734375 17.569921875  43.125 16.0708333333333  43.125 14.5  C 43.125 12.9291666666667  42.82177734375 11.430078125  42.21533203125 10.002734375  C 41.60888671875 8.575390625  40.7890625 7.340625  39.755859375 6.2984375  C 38.72265625 5.25625  37.49853515625 4.429296875  36.08349609375 3.817578125  C 34.66845703125 3.205859375  33.1822916666667 2.9  31.625 2.9  L 22.955078125 2.9  C 24.7369791666667 4.259375  26.1482747395833 5.95104166666666  27.18896484375 7.975  C 28.2296549479167 9.99895833333333  28.75 12.1739583333333  28.75 14.5  C 28.75 16.8260416666667  28.2296549479167 19.0010416666667  27.18896484375 21.025  C 26.1482747395833 23.0489583333333  24.7369791666667 24.740625  22.955078125 26.1  L 31.625 26.1  C 33.1822916666667 26.1  34.66845703125 25.794140625  36.08349609375 25.182421875  C 37.49853515625 24.570703125  38.72265625 23.74375  39.755859375 22.7015625  C 40.7890625 21.659375  41.60888671875 20.424609375  42.21533203125 18.997265625  Z M 44.8544921875 8.869921875  C 45.6181640625 10.659765625  46 12.5364583333333  46 14.5  C 46 16.4635416666667  45.6181640625 18.340234375  44.8544921875 20.130078125  C 44.0908203125 21.919921875  43.06884765625 23.460546875  41.78857421875 24.751953125  C 40.50830078125 26.043359375  38.98095703125 27.07421875  37.20654296875 27.84453125  C 35.43212890625 28.61484375  33.5716145833333 29  31.625 29  L 14.375 29  C 12.4283854166667 29  10.56787109375 28.61484375  8.79345703125 27.84453125  C 7.01904296875 27.07421875  5.49169921875 26.043359375  4.21142578125 24.751953125  C 2.93115234375 23.460546875  1.9091796875 21.919921875  1.1455078125 20.130078125  C 0.3818359375 18.340234375  0 16.4635416666667  0 14.5  C 0 12.5364583333333  0.3818359375 10.659765625  1.1455078125 8.869921875  C 1.9091796875 7.080078125  2.93115234375 5.539453125  4.21142578125 4.248046875  C 5.49169921875 2.956640625  7.01904296875 1.92578125  8.79345703125 1.15546875  C 10.56787109375 0.385156250000001  12.4283854166667 0  14.375 0  L 31.625 0  C 33.5716145833333 0  35.43212890625 0.385156250000001  37.20654296875 1.15546875  C 38.98095703125 1.92578125  40.50830078125 2.956640625  41.78857421875 4.248046875  C 43.06884765625 5.539453125  44.0908203125 7.080078125  44.8544921875 8.869921875  Z " fill-rule="nonzero" fill="#000000" stroke="none" fill-opacity="0.313725490196078" transform="matrix(1 0 0 1 330 327 )" />
  </g>
</svg>