<?xml version="1.0" encoding="utf-8"?>
<svg version="1.1" xmlns:xlink="http://www.w3.org/1999/xlink" width="68px" height="22px" xmlns="http://www.w3.org/2000/svg">
  <defs>
    <mask fill="white" id="clip35">
      <path d="M 0 22  L 0 0  L 38.7736625514395 0  L 41.2427983539087 0  L 68 0  L 68 22  L 32.1893004115188 22  L 0 22  Z " fill-rule="evenodd" />
    </mask>
  </defs>
  <g transform="matrix(1 0 0 1 -562 -521 )">
    <path d="M 0 22  L 0 0  L 38.7736625514395 0  L 41.2427983539087 0  L 68 0  L 68 22  L 32.1893004115188 22  L 0 22  Z " fill-rule="nonzero" fill="#de9191" stroke="none" transform="matrix(1 0 0 1 562 521 )" />
    <path d="M 0 22  L 0 0  L 38.7736625514395 0  L 41.2427983539087 0  L 68 0  L 68 22  L 32.1893004115188 22  L 0 22  Z " stroke-width="2" stroke="#797979" fill="none" transform="matrix(1 0 0 1 562 521 )" mask="url(#clip35)" />
  </g>
</svg>