<?xml version="1.0" encoding="utf-8"?>
<svg version="1.1" xmlns:xlink="http://www.w3.org/1999/xlink" width="79px" height="22px" xmlns="http://www.w3.org/2000/svg">
  <defs>
    <mask fill="white" id="clip36">
      <path d="M 0 22  L 0 0  L 45.0458726700548 0  L 45.6673928830765 0  L 46.6235778261912 0  L 47.9144274993939 0  L 50.4483175986399 0  L 79 0  L 79 22  L 37.3963931251469 22  L 0 22  Z " fill-rule="evenodd" />
    </mask>
  </defs>
  <g transform="matrix(1 0 0 1 -658 -521 )">
    <path d="M 0 22  L 0 0  L 45.0458726700548 0  L 45.6673928830765 0  L 46.6235778261912 0  L 47.9144274993939 0  L 50.4483175986399 0  L 79 0  L 79 22  L 37.3963931251469 22  L 0 22  Z " fill-rule="nonzero" fill="#f2f2f2" stroke="none" transform="matrix(1 0 0 1 658 521 )" />
    <path d="M 0 22  L 0 0  L 45.0458726700548 0  L 45.6673928830765 0  L 46.6235778261912 0  L 47.9144274993939 0  L 50.4483175986399 0  L 79 0  L 79 22  L 37.3963931251469 22  L 0 22  Z " stroke-width="2" stroke="#797979" fill="none" transform="matrix(1 0 0 1 658 521 )" mask="url(#clip36)" />
  </g>
</svg>