<?xml version="1.0" encoding="utf-8"?>
<svg version="1.1" xmlns:xlink="http://www.w3.org/1999/xlink" width="36px" height="16px" xmlns="http://www.w3.org/2000/svg">
  <g transform="matrix(1 0 0 1 -88 -172 )">
    <path d="M 35.8125 5.51365409622887  C 35.9375 5.63849154746424  36 5.79800606848721  36 5.99219765929779  L 36 9.98699609882965  C 36 10.1811876896402  35.9375 10.3407022106632  35.8125 10.4655396618986  C 35.6875 10.5903771131339  35.5277777777778 10.6527958387516  35.3333333333333 10.6527958387516  L 9.33333333333333 10.6527958387516  L 9.33333333333333 15.3133940182055  C 9.33333333333333 15.6046814044213  9.20138888888889 15.8058084091894  8.9375 15.9167750325098  C 8.67361111111111 16.0277416558301  8.43055555555556 15.9930645860425  8.20833333333333 15.8127438231469  L 0.208333333333333 8.53055916775033  C 0.0694444444444446 8.39185088859991  0 8.23233636757694  0 8.0520156046814  C 0 7.85782401387083  0.0694444444444446 7.69137407889033  0.208333333333333 7.55266579973992  L 8.20833333333333 0.187256176853056  C 8.43055555555556 -0.00693541395752462  8.67361111111111 -0.0485478977026474  8.9375 0.062418725617686  C 9.20138888888889 0.187256176853056  9.33333333333333 0.388383181621153  9.33333333333333 0.665799739921976  L 9.33333333333333 5.32639791937581  L 35.3333333333333 5.32639791937581  C 35.5277777777778 5.32639791937581  35.6875 5.3888166449935  35.8125 5.51365409622887  Z " fill-rule="nonzero" fill="#333333" stroke="none" transform="matrix(1 0 0 1 88 172 )" />
  </g>
</svg>