<?xml version="1.0" encoding="utf-8"?>
<svg version="1.1" xmlns:xlink="http://www.w3.org/1999/xlink" width="19px" height="16px" xmlns="http://www.w3.org/2000/svg">
  <g transform="matrix(1 0 0 1 -326 -1569 )">
    <path d="M 8.55228365384615 1.37271448663854  C 8.69691506410256 1.51523675574308  8.76923076923077 1.6840131270511  9 1.87904360056259  L 9 14.1209563994374  C 8.76923076923077 14.3159868729489  8.69691506410256 14.4847632442569  8.55228365384615 14.6272855133615  C 8.40765224358974 14.769807782466  8.23637820512821 14.8410689170183  8.03846153846154 14.8410689170183  C 7.84054487179487 14.8410689170183  7.66927083333333 14.769807782466  7.52463942307692 14.6272855133615  L 3.72235576923077 10.8804500703235  L 0.730769230769231 10.8804500703235  C 0.532852564102564 10.8804500703235  0.361578525641026 10.8091889357712  0.216947115384615 10.6666666666667  C 0.0723157051282051 10.5241443975621  0 10.3553680262541  0 10.1603375527426  L 0 5.83966244725738  C 0 5.6446319737459  0.0723157051282051 5.47585560243788  0.216947115384615 5.33333333333333  C 0.361578525641026 5.19081106422878  0.532852564102564 5.11954992967651  0.730769230769231 5.11954992967651  L 3.72235576923077 5.11954992967651  L 7.52463942307692 1.37271448663854  C 7.66927083333333 1.23019221753399  7.84054487179487 1.15893108298172  8.03846153846154 1.15893108298172  C 8.23637820512821 1.15893108298172  8.40765224358974 1.23019221753399  8.55228365384615 1.37271448663854  Z M 12.6685697115385 6.40225035161744  C 12.9920873397436 6.89732770745429  13.1538461538462 7.42991092358181  13.1538461538462 8  C 13.1538461538462 8.57008907641819  12.9920873397436 9.10079699953118  12.6685697115385 9.59212376933896  C 12.3450520833333 10.0834505391467  11.9168669871795 10.4341303328645  11.3840144230769 10.6441631504923  C 11.3078926282051 10.6816690107829  11.2127403846154 10.7004219409283  11.0985576923077 10.7004219409283  C 10.900641025641 10.7004219409283  10.7293669871795 10.6310360993905  10.5847355769231 10.492264416315  C 10.4401041666667 10.3534927332396  10.3677884615385 10.182841068917  10.3677884615385 9.9803094233474  C 10.3677884615385 9.82278481012658  10.4134615384615 9.6896390060947  10.5048076923077 9.58087201125176  C 10.5961538461538 9.47210501640881  10.706530448718 9.37834036568214  10.8359375 9.29957805907173  C 10.9653445512821 9.22081575246132  11.0947516025641 9.13455227379278  11.2241586538462 9.04078762306611  C 11.3535657051282 8.94702297233943  11.4639423076923 8.81200187529301  11.5552884615385 8.63572433192686  C 11.6466346153846 8.45944678856071  11.6923076923077 8.24753867791842  11.6923076923077 8  C 11.6923076923077 7.75246132208158  11.6466346153846 7.54055321143929  11.5552884615385 7.36427566807314  C 11.4639423076923 7.18799812470698  11.3535657051282 7.05297702766057  11.2241586538462 6.9592123769339  C 11.0947516025641 6.86544772620722  10.9653445512821 6.77918424753868  10.8359375 6.70042194092827  C 10.706530448718 6.62165963431786  10.5961538461538 6.52789498359119  10.5048076923077 6.41912798874824  C 10.4134615384615 6.3103609939053  10.3677884615385 6.17721518987342  10.3677884615385 6.0196905766526  C 10.3677884615385 5.81715893108298  10.4401041666667 5.64650726676043  10.5847355769231 5.50773558368495  C 10.7293669871795 5.36896390060947  10.900641025641 5.29957805907173  11.0985576923077 5.29957805907173  C 11.2127403846154 5.29957805907173  11.3078926282051 5.31833098921707  11.3840144230769 5.35583684950774  C 11.9168669871795 5.55836849507736  12.3450520833333 5.90717299578059  12.6685697115385 6.40225035161744  Z M 15.1063701923077 4.82137834036568  C 15.753405448718 5.79278012189405  16.0769230769231 6.85232067510549  16.0769230769231 8  C 16.0769230769231 9.14767932489452  15.753405448718 10.207219878106  15.1063701923077 11.1786216596343  C 14.4593349358974 12.1500234411627  13.6029647435897 12.8570089076418  12.5372596153846 13.2995780590717  C 12.4383012820513 13.3370839193624  12.3431490384615 13.3558368495077  12.2518028846154 13.3558368495077  C 12.0462740384615 13.3558368495077  11.8711939102564 13.2845757149555  11.7265625 13.1420534458509  C 11.5819310897436 12.9995311767464  11.5096153846154 12.8307548054383  11.5096153846154 12.6357243319269  C 11.5096153846154 12.3431786216596  11.6580528846154 12.1218940459447  11.9549278846154 11.971870604782  C 12.3812099358974 11.7543366150961  12.6704727564103 11.5893108298172  12.8227163461538 11.4767932489451  C 13.3860176282051 11.0717299578059  13.8256209935897 10.5635255508673  14.1415264423077 9.95218002812939  C 14.4574318910256 9.34083450539147  14.6153846153846 8.69010782934834  14.6153846153846 8  C 14.6153846153846 7.30989217065166  14.4574318910256 6.65916549460853  14.1415264423077 6.0478199718706  C 13.8256209935897 5.43647444913268  13.3860176282051 4.92827004219409  12.8227163461538 4.52320675105485  C 12.6704727564103 4.41068917018284  12.3812099358974 4.24566338490389  11.9549278846154 4.028129395218  C 11.6580528846154 3.87810595405532  11.5096153846154 3.65682137834037  11.5096153846154 3.36427566807314  C 11.5096153846154 3.16924519456165  11.5819310897436 3.00046882325363  11.7265625 2.85794655414909  C 11.8711939102564 2.71542428504454  12.042467948718 2.64416315049226  12.2403846153846 2.64416315049226  C 12.339342948718 2.64416315049226  12.4383012820513 2.6629160806376  12.5372596153846 2.70042194092827  C 13.6029647435897 3.14299109235818  14.4593349358974 3.84997655883732  15.1063701923077 4.82137834036568  Z M 17.5498798076923 3.24613220815752  C 18.5166266025641 4.69010782934834  19 6.27473042662916  19 8  C 19 9.72526957337084  18.5166266025641 11.3098921706517  17.5498798076923 12.7538677918425  C 16.5831330128205 14.1978434130333  15.2966746794872 15.2611345522738  13.6905048076923 15.943741209564  C 13.591546474359 15.9812470698547  13.4925881410256 16  13.3936298076923 16  C 13.1957131410256 16  13.0244391025641 15.9287388654477  12.8798076923077 15.7862165963432  C 12.7351762820513 15.6436943272386  12.6628605769231 15.4749179559306  12.6628605769231 15.2798874824191  C 12.6628605769231 15.0098452883263  12.8112980769231 14.7885607126113  13.1081730769231 14.6160337552743  C 13.1614583333333 14.5860290670417  13.2470953525641 14.5466479137365  13.3650841346154 14.4978902953586  C 13.4830729166667 14.4491326769808  13.5687099358974 14.4097515236756  13.6219951923077 14.379746835443  C 13.972155448718 14.1922175339897  14.2842548076923 14.0009376465073  14.5582932692308 13.8059071729958  C 15.4945913461538 13.1233005157056  16.2253605769231 12.2719174871074  16.7506009615385 11.2517580872011  C 17.2758413461538 10.2315986872949  17.5384615384615 9.14767932489452  17.5384615384615 8  C 17.5384615384615 6.85232067510549  17.2758413461538 5.76840131270511  16.7506009615385 4.74824191279887  C 16.2253605769231 3.72808251289264  15.4945913461538 2.87669948429442  14.5582932692308 2.19409282700422  C 14.2842548076923 1.99906235349273  13.972155448718 1.80778246601031  13.6219951923077 1.62025316455696  C 13.5687099358974 1.59024847632442  13.4830729166667 1.55086732301922  13.3650841346154 1.50210970464135  C 13.2470953525641 1.45335208626348  13.1614583333333 1.41397093295827  13.1081730769231 1.38396624472574  C 12.8112980769231 1.21143928738865  12.6628605769231 0.990154711673698  12.6628605769231 0.720112517580873  C 12.6628605769231 0.525082044069384  12.7351762820513 0.356305672761367  12.8798076923077 0.213783403656821  C 13.0244391025641 0.0712611345522731  13.1957131410256 0  13.3936298076923 0  C 13.4925881410256 0  13.591546474359 0.0187529301453342  13.6905048076923 0.0562587904360061  C 15.2966746794872 0.738865447726205  16.5831330128205 1.80215658696671  17.5498798076923 3.24613220815752  Z " fill-rule="nonzero" fill="#000000" stroke="none" transform="matrix(1 0 0 1 326 1569 )" />
  </g>
</svg>