<?xml version="1.0" encoding="utf-8"?>
<svg version="1.1" xmlns:xlink="http://www.w3.org/1999/xlink" width="115px" height="119px" xmlns="http://www.w3.org/2000/svg">
  <g transform="matrix(1 0 0 1 -633 -355 )">
    <path d="M 29.3374399038462 89.7664930555556  C 31.0652043269231 91.4881365740741  31.9290865384615 93.5655864197531  31.9290865384615 95.9988425925926  C 31.9290865384615 98.4320987654321  31.0652043269231 100.509548611111  29.3374399038462 102.23119212963  C 27.6096754807692 103.952835648148  25.5248397435897 104.813657407407  23.0829326923077 104.813657407407  C 20.6870993589744 104.813657407407  18.6137820512821 103.941358024691  16.8629807692308 102.196759259259  C 15.1121794871795 100.452160493827  14.2367788461538 98.3861882716049  14.2367788461538 95.9988425925926  C 14.2367788461538 93.5655864197531  15.1006610576923 91.4881365740741  16.8284254807692 89.7664930555556  C 18.5561899038462 88.044849537037  20.6410256410256 87.1840277777778  23.0829326923077 87.1840277777778  C 25.5248397435897 87.1840277777778  27.6096754807692 88.044849537037  29.3374399038462 89.7664930555556  Z M 63.7545072115385 103.952835648148  C 65.4822716346154 105.674479166667  66.3461538461538 107.751929012346  66.3461538461538 110.185185185185  C 66.3461538461538 112.618441358025  65.4822716346154 114.695891203704  63.7545072115385 116.417534722222  C 62.0267427884615 118.139178240741  59.9419070512821 119  57.5 119  C 55.0580929487179 119  52.9732572115385 118.139178240741  51.2454927884615 116.417534722222  C 49.5177283653846 114.695891203704  48.6538461538462 112.618441358025  48.6538461538462 110.185185185185  C 48.6538461538462 107.751929012346  49.5177283653846 105.674479166667  51.2454927884615 103.952835648148  C 52.9732572115385 102.23119212963  55.0580929487179 101.37037037037  57.5 101.37037037037  C 59.9419070512821 101.37037037037  62.0267427884615 102.23119212963  63.7545072115385 103.952835648148  Z M 15.1006610576923 55.4713541666667  C 16.8284254807692 57.1929976851852  17.6923076923077 59.2704475308642  17.6923076923077 61.7037037037037  C 17.6923076923077 64.1369598765432  16.8284254807692 66.2144097222222  15.1006610576923 67.9360532407407  C 13.3728966346154 69.6576967592593  11.2880608974359 70.5185185185185  8.84615384615385 70.5185185185185  C 6.4042467948718 70.5185185185185  4.31941105769231 69.6576967592593  2.59164663461538 67.9360532407407  C 0.863882211538462 66.2144097222222  0 64.1369598765432  0 61.7037037037037  C 0 59.2704475308642  0.863882211538462 57.1929976851852  2.59164663461538 55.4713541666667  C 4.31941105769231 53.7497106481481  6.4042467948718 52.8888888888889  8.84615384615385 52.8888888888889  C 11.2880608974359 52.8888888888889  13.3728966346154 53.7497106481481  15.1006610576923 55.4713541666667  Z M 98.1715745192308 89.7664930555556  C 99.8993389423077 91.4881365740741  100.763221153846 93.5655864197531  100.763221153846 95.9988425925926  C 100.763221153846 98.3861882716049  99.8878205128205 100.452160493827  98.1370192307692 102.196759259259  C 96.386217948718 103.941358024691  94.3129006410256 104.813657407407  91.9170673076923 104.813657407407  C 89.4751602564103 104.813657407407  87.3903245192308 103.952835648148  85.6625600961538 102.23119212963  C 83.9347956730769 100.509548611111  83.0709134615385 98.4320987654321  83.0709134615385 95.9988425925926  C 83.0709134615385 93.5655864197531  83.9347956730769 91.4881365740741  85.6625600961538 89.7664930555556  C 87.3903245192308 88.044849537037  89.4751602564103 87.1840277777778  91.9170673076923 87.1840277777778  C 94.3589743589744 87.1840277777778  96.4438100961538 88.044849537037  98.1715745192308 89.7664930555556  Z M 30.8924278846154 19.6267361111111  C 33.0578926282051 21.7845293209876  34.140625 24.3784722222222  34.140625 27.4085648148148  C 34.140625 30.4386574074074  33.0578926282051 33.032600308642  30.8924278846154 35.1903935185185  C 28.7269631410256 37.3481867283951  26.1237980769231 38.4270833333333  23.0829326923077 38.4270833333333  C 20.0420673076923 38.4270833333333  17.4389022435897 37.3481867283951  15.2734375 35.1903935185185  C 13.1079727564103 33.032600308642  12.0252403846154 30.4386574074074  12.0252403846154 27.4085648148148  C 12.0252403846154 24.3784722222222  13.1079727564103 21.7845293209876  15.2734375 19.6267361111111  C 17.4389022435897 17.4689429012346  20.0420673076923 16.3900462962963  23.0829326923077 16.3900462962963  C 26.1237980769231 16.3900462962963  28.7269631410256 17.4689429012346  30.8924278846154 19.6267361111111  Z M 112.408353365385 55.4713541666667  C 114.136117788462 57.1929976851852  115 59.2704475308642  115 61.7037037037037  C 115 64.1369598765432  114.136117788462 66.2144097222222  112.408353365385 67.9360532407407  C 110.680588942308 69.6576967592593  108.595753205128 70.5185185185185  106.153846153846 70.5185185185185  C 103.711939102564 70.5185185185185  101.627103365385 69.6576967592593  99.8993389423077 67.9360532407407  C 98.1715745192308 66.2144097222222  97.3076923076923 64.1369598765432  97.3076923076923 61.7037037037037  C 97.3076923076923 59.2704475308642  98.1715745192308 57.1929976851852  99.8993389423077 55.4713541666667  C 101.627103365385 53.7497106481481  103.711939102564 52.8888888888889  106.153846153846 52.8888888888889  C 108.595753205128 52.8888888888889  110.680588942308 53.7497106481481  112.408353365385 55.4713541666667  Z M 66.8990384615385 3.85648148148149  C 69.4791666666667 6.42746913580246  70.7692307692308 9.54938271604937  70.7692307692308 13.2222222222222  C 70.7692307692308 16.8950617283951  69.4791666666667 20.016975308642  66.8990384615385 22.587962962963  C 64.3189102564103 25.1589506172839  61.1858974358974 26.4444444444444  57.5 26.4444444444444  C 53.8141025641026 26.4444444444444  50.6810897435898 25.1589506172839  48.1009615384615 22.587962962963  C 45.5208333333333 20.016975308642  44.2307692307692 16.8950617283951  44.2307692307692 13.2222222222222  C 44.2307692307692 9.54938271604937  45.5208333333333 6.42746913580246  48.1009615384615 3.85648148148149  C 50.6810897435898 1.2854938271605  53.8141025641026 0  57.5 0  C 61.1858974358974 0  64.3189102564103 1.2854938271605  66.8990384615385 3.85648148148149  Z M 102.836538461538 16.5277777777778  C 105.877403846154 19.5578703703704  107.397836538462 23.184799382716  107.397836538462 27.4085648148148  C 107.397836538462 31.6782407407407  105.877403846154 35.3166473765432  102.836538461538 38.3237847222222  C 99.7956730769231 41.3309220679012  96.1558493589744 42.8344907407407  91.9170673076923 42.8344907407407  C 87.6322115384615 42.8344907407407  83.9808693910256 41.3309220679012  80.9630408653846 38.3237847222222  C 77.9452123397436 35.3166473765432  76.4362980769231 31.6782407407407  76.4362980769231 27.4085648148148  C 76.4362980769231 23.184799382716  77.9452123397436 19.5578703703704  80.9630408653846 16.5277777777778  C 83.9808693910256 13.4976851851852  87.6322115384615 11.9826388888889  91.9170673076923 11.9826388888889  C 96.1558493589744 11.9826388888889  99.7956730769231 13.4976851851852  102.836538461538 16.5277777777778  Z " fill-rule="nonzero" fill="#000000" stroke="none" transform="matrix(1 0 0 1 633 355 )" />
  </g>
</svg>